<svg version="1.2" xmlns="http://www.w3.org/2000/svg" viewBox="0 0 1500 1000" width="1500" height="1000">
	<title>3024049-ai</title>
	<style>
		.s0 { fill: #f5f5f5 } 
		.s1 { fill: #e0e0e0 } 
		.s2 { fill: none;stroke: #ffffff;stroke-miterlimit:10;stroke-width: 2 } 
		.s3 { opacity: .2;fill: #000000 } 
		.s4 { fill: #e8505b } 
		.s5 { fill: #263238 } 
		.s6 { fill: #455a64 } 
		.s7 { fill: #b78876 } 
		.s8 { fill: #a36957 } 
		.s9 { fill: #000000 } 
		.s10 { fill: #fafafa } 
		.s11 { fill: #ffffff } 
	</style>
	<g id="Background Complete">
		<g id="&lt;Group&gt;">
			<g id="&lt;Group&gt;">
				<path id="&lt;Path&gt;" class="s0" d="m660.8 575l-224.4 150.1-221.1-330.4 224.5-150.1z"/>
			</g>
			<g id="&lt;Group&gt;">
				<g id="&lt;Group&gt;">
					<path id="&lt;Path&gt;" class="s1" d="m544.8 559.3l-2.5 15.8-111.6-16.1 2.6-15.8z"/>
				</g>
				<g id="&lt;Group&gt;">
					<path id="&lt;Path&gt;" class="s1" d="m488.7 503.1l16 2.3-17.8 109.8-16-2.3z"/>
				</g>
			</g>
			<g id="&lt;Group&gt;">
				<g id="&lt;Group&gt;">
					<path id="&lt;Path&gt;" class="s2" d=""/>
				</g>
			</g>
			<g id="&lt;Group&gt;">
				<g id="&lt;Group&gt;">
					<path id="&lt;Path&gt;" class="s1" d="m385.9 363.5c0.2 0.2-22.3 15.6-50.2 34.2-27.9 18.7-50.7 33.6-50.8 33.4-0.2-0.3 22.3-15.6 50.2-34.3 27.9-18.6 50.6-33.5 50.8-33.3z"/>
				</g>
			</g>
			<g id="&lt;Group&gt;">
				<g id="&lt;Group&gt;">
					<path id="&lt;Path&gt;" class="s1" d="m468.4 342.8c0.2 0.2-37.2 25.5-83.5 56.5-46.3 30.9-83.9 55.8-84.1 55.6-0.2-0.2 37.2-25.5 83.5-56.5 46.3-31 84-55.9 84.1-55.6z"/>
				</g>
			</g>
			<g id="&lt;Group&gt;">
				<g id="&lt;Group&gt;">
					<path id="&lt;Path&gt;" class="s1" d="m485 367.5c0.1 0.2-37.3 25.5-83.5 56.5-46.3 31-84 55.9-84.2 55.6-0.1-0.2 37.3-25.5 83.6-56.5 46.3-30.9 83.9-55.8 84.1-55.6z"/>
				</g>
			</g>
			<g id="&lt;Group&gt;">
				<g id="&lt;Group&gt;">
					<path id="&lt;Path&gt;" class="s1" d="m501.5 392.2c0.2 0.3-37.2 25.6-83.5 56.5-46.3 31-83.9 55.9-84.1 55.7-0.2-0.3 37.2-25.6 83.5-56.5 46.3-31 84-55.9 84.1-55.7z"/>
				</g>
			</g>
			<g id="&lt;Group&gt;">
				<g id="&lt;Group&gt;">
					<path id="&lt;Path&gt;" class="s1" d="m518.1 417c0.1 0.2-37.3 25.5-83.6 56.5-46.3 30.9-83.9 55.8-84.1 55.6-0.1-0.3 37.3-25.5 83.6-56.5 46.2-31 83.9-55.9 84.1-55.6z"/>
				</g>
			</g>
		</g>
		<g id="&lt;Group&gt;">
			<g id="&lt;Group&gt;">
				<path id="&lt;Path&gt;" class="s0" d="m1375.8 743.5l-188.5 126.1-185.6-277.5 188.4-126.1z"/>
			</g>
			<g id="&lt;Group&gt;">
				<g id="&lt;Group&gt;">
					<path id="&lt;Path&gt;" class="s1" d="m1278.4 730.4l-2.1 13.2-93.7-13.5 2.1-13.2z"/>
				</g>
				<g id="&lt;Group&gt;">
					<path id="&lt;Path&gt;" class="s1" d="m1231.2 683.1l13.5 2-14.9 92.2-13.5-1.9z"/>
				</g>
			</g>
			<g id="&lt;Group&gt;">
				<g id="&lt;Group&gt;">
					<path id="&lt;Path&gt;" class="s2" d=""/>
				</g>
			</g>
			<g id="&lt;Group&gt;">
				<g id="&lt;Group&gt;">
					<path id="&lt;Path&gt;" class="s1" d="m1144.9 565.9c0.2 0.2-18.7 13.1-42.1 28.8-23.4 15.7-42.6 28.2-42.7 27.9-0.2-0.2 18.7-13.1 42.1-28.8 23.4-15.6 42.6-28.1 42.7-27.9z"/>
				</g>
			</g>
			<g id="&lt;Group&gt;">
				<g id="&lt;Group&gt;">
					<path id="&lt;Path&gt;" class="s1" d="m1214.2 548.5c0.2 0.2-31.2 21.5-70.1 47.5-38.8 26-70.5 46.9-70.6 46.7-0.2-0.3 31.2-21.6 70.1-47.6 38.8-26 70.5-46.8 70.6-46.6z"/>
				</g>
			</g>
			<g id="&lt;Group&gt;">
				<g id="&lt;Group&gt;">
					<path id="&lt;Path&gt;" class="s1" d="m1228.1 569.3c0.2 0.2-31.2 21.5-70.1 47.5-38.9 26-70.5 46.9-70.7 46.6-0.1-0.2 31.3-21.5 70.1-47.5 38.9-26 70.6-46.9 70.7-46.6z"/>
				</g>
			</g>
			<g id="&lt;Group&gt;">
				<g id="&lt;Group&gt;">
					<path id="&lt;Path&gt;" class="s1" d="m1242 590c0.2 0.3-31.2 21.6-70.1 47.6-38.9 26-70.5 46.8-70.7 46.6-0.1-0.2 31.3-21.5 70.1-47.5 38.9-26 70.6-46.9 70.7-46.7z"/>
				</g>
			</g>
			<g id="&lt;Group&gt;">
				<g id="&lt;Group&gt;">
					<path id="&lt;Path&gt;" class="s1" d="m1255.9 610.8c0.2 0.3-31.2 21.5-70.1 47.5-38.9 26-70.5 46.9-70.7 46.7-0.1-0.3 31.3-21.5 70.1-47.5 38.9-26 70.5-46.9 70.7-46.7z"/>
				</g>
			</g>
		</g>
		<g id="&lt;Group&gt;">
			<g id="&lt;Group&gt;">
				<path id="&lt;Path&gt;" class="s0" d="m730 559.5l-205.6-110 161.9-302.8 205.7 110z"/>
			</g>
			<g id="&lt;Group&gt;">
				<g id="&lt;Group&gt;">
					<path id="&lt;Path&gt;" class="s1" d="m694.8 464.7l-13 4.5-33.1-91.5 13-4.5z"/>
				</g>
				<g id="&lt;Group&gt;">
					<path id="&lt;Path&gt;" class="s1" d="m714.8 399.1l4.8 13.1-90.9 31.1-4.8-13.1z"/>
				</g>
			</g>
			<g id="&lt;Group&gt;">
				<g id="&lt;Group&gt;">
					<path id="&lt;Path&gt;" class="s2" d=""/>
				</g>
			</g>
			<g id="&lt;Group&gt;">
				<g id="&lt;Group&gt;">
					<path id="&lt;Path&gt;" class="s1" d="m779.4 264c-0.1 0.3-21-10.6-46.5-24.2-25.6-13.7-46.2-25-46-25.3 0.1-0.3 21 10.5 46.6 24.2 25.5 13.7 46.1 25 45.9 25.3z"/>
				</g>
			</g>
			<g id="&lt;Group&gt;">
				<g id="&lt;Group&gt;">
					<path id="&lt;Path&gt;" class="s1" d="m828.8 318.5c-0.2 0.3-34.7-17.9-77.1-40.6-42.4-22.7-76.7-41.3-76.5-41.6 0.2-0.3 34.7 17.8 77.1 40.5 42.4 22.7 76.7 41.4 76.5 41.7z"/>
				</g>
			</g>
			<g id="&lt;Group&gt;">
				<g id="&lt;Group&gt;">
					<path id="&lt;Path&gt;" class="s1" d="m816.7 341.1c-0.2 0.3-34.7-17.8-77.1-40.5-42.4-22.7-76.7-41.3-76.5-41.6 0.1-0.3 34.6 17.8 77.1 40.5 42.4 22.7 76.6 41.3 76.5 41.6z"/>
				</g>
			</g>
			<g id="&lt;Group&gt;">
				<g id="&lt;Group&gt;">
					<path id="&lt;Path&gt;" class="s1" d="m804.6 363.8c-0.2 0.3-34.7-17.9-77.1-40.5-42.5-22.7-76.7-41.4-76.5-41.7 0.1-0.3 34.6 17.9 77 40.6 42.5 22.6 76.7 41.3 76.6 41.6z"/>
				</g>
			</g>
			<g id="&lt;Group&gt;">
				<g id="&lt;Group&gt;">
					<path id="&lt;Path&gt;" class="s1" d="m792.4 386.4c-0.1 0.3-34.6-17.8-77.1-40.5-42.4-22.7-76.6-41.3-76.5-41.6 0.2-0.3 34.7 17.8 77.1 40.5 42.4 22.7 76.7 41.3 76.5 41.6z"/>
				</g>
			</g>
		</g>
		<path id="&lt;Path&gt;" class="s3" d="m793.5 0h-5.2v88h5.2z"/>
	</g>
	<g id="Lamp">
		<g id="&lt;Group&gt;">
			<g id="&lt;Group&gt;">
				<g id="&lt;Group&gt;">
					<path id="&lt;Path&gt;" class="s4" d="m670.5 194.4h240.9c0 0-22.3-106.5-122.3-106.5-89 0-118.6 106.5-118.6 106.5z"/>
				</g>
			</g>
			<path id="&lt;Path&gt;" class="s4" d="m793.5 0h-5.2v88h5.2z"/>
		</g>
	</g>
	<g id="Floor">
		<g id="&lt;Group&gt;">
			<g id="&lt;Group&gt;">
				<path id="&lt;Path&gt;" class="s5" d="m1327.3 879.7c0 0.2-258.5 0.5-577.3 0.5-318.9 0-577.3-0.3-577.3-0.5 0-0.3 258.4-0.6 577.3-0.6 318.8 0 577.3 0.3 577.3 0.6z"/>
			</g>
		</g>
	</g>
	<g id="Plant">
		<g id="&lt;Group&gt;">
			<g id="&lt;Group&gt;">
				<path id="&lt;Path&gt;" class="s4" d="m236.6 754.4c6.7 0.2 13.1 3.9 17.5 9 4.5 5.1 7.2 11.5 9 18 3.4 12.7 1.3 27.6-2.3 40.2-13.7-4.9-22.2-19.5-26-27.2-6-12.1-9.5-37.7 1.8-40z"/>
			</g>
			<g id="&lt;Group&gt;">
				<path id="&lt;Path&gt;" class="s4" d="m280.5 836.9c-4.3-6.2-4.4-14.8-1-21.6 3.4-6.7 10-11.6 17.2-13.8 3.3-1 7.2-1.4 10.1 0.5 2.7 1.8 3.9 5.4 3.5 8.6-0.3 3.3-2 6.2-3.9 8.9-6.7 9-14.7 16.5-25.9 17.4z"/>
			</g>
			<g id="&lt;Group&gt;">
				<g id="&lt;Group&gt;">
					<path id="&lt;Path&gt;" class="s5" d="m282 879.2c-0.1 0-0.3-1-0.6-2.7q-0.6-2.8-1.4-7.2c-1.1-6-2.8-14.6-1.5-24.2 1.2-9.5 5-17.6 9-22.4 1.9-2.5 3.8-4.2 5.1-5.3 0.7-0.5 1.3-0.9 1.7-1.1q0.6-0.4 0.6-0.4c0.1 0.2-3.2 2.3-6.9 7.2-3.8 4.9-7.4 12.8-8.6 22.2-1.3 9.3 0.3 17.8 1.2 23.9 0.5 3.1 0.9 5.6 1.1 7.3 0.3 1.7 0.4 2.7 0.3 2.7z"/>
				</g>
			</g>
			<g id="&lt;Group&gt;">
				<g id="&lt;Group&gt;">
					<path id="&lt;Path&gt;" class="s5" d="m241 773.7q0-0.1 0.5 1 0.6 1.2 1.4 3c1.3 2.7 3 6.6 5 11.3 4.1 9.6 9.7 22.9 15.4 37.8 5.8 14.8 10.7 28.4 14.1 38.2 1.7 4.9 3 8.9 3.9 11.7q0.7 2 1 3.2 0.4 1.1 0.3 1.2 0 0-0.4-1.1-0.5-1.2-1.2-3.2c-1.1-2.8-2.5-6.7-4.2-11.6-3.6-9.7-8.6-23.3-14.4-38.1-5.7-14.8-11.1-28.2-15.1-37.8-1.9-4.7-3.5-8.6-4.7-11.4q-0.8-1.9-1.2-3.1-0.5-1.1-0.4-1.1z"/>
				</g>
			</g>
			<g id="&lt;Group&gt;">
				<path id="&lt;Path&gt;" class="s4" d="m265.7 851.2c-8-13.7-23.1-23.1-39-24.3-4.1-0.2-8.9 0.4-10.7 4.1-1.8 3.6 0.6 7.9 3.3 10.9 11.5 12.4 30.9 16.8 46.6 10.4"/>
			</g>
			<g id="&lt;Group&gt;">
				<g id="&lt;Group&gt;">
					<path id="&lt;Path&gt;" class="s5" d="m232.9 837.8c0-0.1 0.9 0 2.5 0.1 0.8 0 1.8 0.1 2.9 0.3 1.2 0.2 2.5 0.4 3.9 0.8 1.4 0.3 3 0.6 4.6 1.2 1.7 0.5 3.4 1.2 5.2 2 3.5 1.6 7.3 3.7 10.8 6.4 3.6 2.8 6.5 5.8 9 8.9 1.1 1.5 2.3 3 3.1 4.5 1 1.4 1.7 2.9 2.4 4.2 0.7 1.2 1.1 2.5 1.6 3.6 0.5 1 0.8 2 1 2.8 0.5 1.5 0.7 2.4 0.7 2.4-0.3 0.1-1.2-3.4-3.9-8.5-0.7-1.3-1.5-2.7-2.4-4.1-0.9-1.4-2-2.9-3.2-4.4-2.4-2.9-5.4-5.9-8.9-8.6-3.5-2.7-7.1-4.8-10.6-6.4-1.7-0.8-3.4-1.5-5-2-1.6-0.6-3.1-1-4.5-1.4-5.6-1.4-9.3-1.6-9.2-1.8z"/>
				</g>
			</g>
		</g>
	</g>
	<g id="Character">
		<g id="&lt;Group&gt;">
			<g id="&lt;Group&gt;">
				<g id="&lt;Group&gt;">
					<path id="&lt;Path&gt;" class="s5" d="m1140.7 210.9c-5.9 1.4-8.7 8.2-9.3 14.2-0.5 6 0.2 12.3-2.3 17.8-2.8 6.2-9.6 10.7-9.8 17.5-0.2 4.2 2.3 8.1 2.2 12.2-0.2 6.8-7.2 11.9-7.5 18.7-0.3 4.9 3 9.6 2.2 14.4-0.6 3.8-3.6 6.8-4.8 10.4-2.5 7.2 2.5 15.1 8.9 19.1 7.2 4.5 16.3 5.7 24.4 3.1 8.1-2.6 14.9-8.8 18.1-16.7 3.6-8.6 2.8-18.3 2-27.6q-3.6-43.6-5.4-87.2"/>
				</g>
				<g id="&lt;Group&gt;">
					<g id="&lt;Group&gt;">
						<path id="&lt;Path&gt;" class="s6" d="m1123.6 313.3c-0.1-0.1 1.7-0.6 2.7-3.2 0.6-1.2 0.8-2.9 0.7-4.9 0-1.9-0.7-4-1.4-6.4-0.7-2.4-1.6-5.2-1.1-8.2 0.5-3.1 2.8-5.7 4.8-8.2 1-1.3 2-2.6 2.7-4.1 0.7-1.5 0.8-3.2 0.3-4.8-1-3.3-4.2-5.7-5.7-9.5-0.7-1.8-0.7-3.9-0.3-5.8 0.4-1.9 1.1-3.6 1.9-5.2 1.6-3.3 3.3-6.3 4-9.4 1.4-6.4 0.7-12.4 1.7-17.4 0.8-5 3-8.7 5-10.7 1.1-1 2-1.5 2.7-1.9q1-0.4 1-0.3c0.1 0.1-1.4 0.5-3.4 2.5-1.9 2-3.8 5.6-4.6 10.5-0.4 2.4-0.5 5.2-0.6 8.1-0.1 2.9-0.1 6.1-0.9 9.4-0.7 3.3-2.5 6.4-4 9.6-1.5 3.2-2.9 6.8-1.5 10.3 1.2 3.4 4.5 5.8 5.7 9.5 0.6 1.8 0.4 3.8-0.4 5.5-0.7 1.6-1.8 3-2.9 4.3-2.1 2.5-4.2 4.9-4.6 7.7-0.5 2.8 0.2 5.5 0.9 7.9 0.6 2.4 1.3 4.6 1.3 6.6 0.1 2-0.3 3.8-0.9 5.1-0.6 1.3-1.4 2.1-2 2.5-0.7 0.4-1.1 0.5-1.1 0.5z"/>
					</g>
				</g>
			</g>
			<path id="&lt;Path&gt;" class="s7" d="m1107.9 360.7l-18.1 52.1-75.2 4-12.6 27.9 78.6 8c15.7 6.5 33.6-1.5 39.3-17.4l21-58.6z"/>
			<g id="&lt;Group&gt;">
				<g id="&lt;Group&gt;">
					<g id="&lt;Group&gt;">
						<path id="&lt;Path&gt;" class="s7" d="m1263.6 851.4c0 0-55.1-175.2-56.3-180.9-1.1-5.2 20-131.3 22.7-163.9l-74.6 2.8q0 0 0 0.5l-31.7 1.8 28.4 358.4h34.3l-3.4-118.9c21.2 56.7 51.5 114.6 51.5 114.6z"/>
					</g>
					<g id="&lt;Group&gt;">
						<path id="&lt;Path&gt;" class="s8" d="m1184.4 793.8c0-1.1-0.4-39.9-0.4-39.9-0.4 2.3-13.2-33.6-12.9-35.8 0.2-1.1 13.3 75.7 13.3 75.7z"/>
					</g>
				</g>
				<g id="&lt;Group&gt;">
					<path id="&lt;Path&gt;" class="s8" d="m1169.7 701.1c-0.1 0-0.2 0.7-0.2 2.1-0.1 1.4-0.1 3.5 0 6q0.1 1.9 0.4 4.1c0.1 1.4 0.3 3 0.7 4.6 0.6 3.3 1.6 6.9 2.8 10.5 2.5 7.2 5.2 13.6 7.2 18.2q1.4 3.1 2.4 5.4c0.6 1.3 0.9 2 1 1.9 0.1 0-0.2-0.7-0.6-2.1-0.5-1.3-1.2-3.2-2.1-5.5-1.7-4.7-4.4-11.1-6.8-18.3-1.2-3.6-2.2-7-2.9-10.3-0.3-1.6-0.6-3.1-0.8-4.5q-0.3-2.2-0.5-4.1c-0.2-2.5-0.3-4.5-0.4-5.9-0.1-1.4-0.1-2.1-0.2-2.1z"/>
				</g>
			</g>
			<g id="&lt;Group&gt;">
				<g id="&lt;Group&gt;">
					<g id="&lt;Group&gt;">
						<g id="&lt;Group&gt;">
							<path id="&lt;Path&gt;" class="s6" d="m1151.5 871.8l-0.1-3.2 35.2-1.5 0.1 13.3-2.2 0.1c-9.6 0.6-49.1 2.2-55.5 0.3-7.2-2.2 22.5-9 22.5-9z"/>
						</g>
					</g>
					<g id="&lt;Group&gt;">
						<g id="&lt;Group&gt;">
							<path id="&lt;Path&gt;" class="s5" d="m1187.2 879.6q0 0-0.6 0-0.8 0.1-1.8 0.1-2.6 0.2-6.3 0.3c-5.4 0.2-12.8 0.4-21 0.5-8.2 0-15.6-0.1-21-0.3q-3.7-0.1-6.3-0.2-1-0.1-1.8-0.1-0.6-0.1-0.6-0.1 0 0 0.6 0 0.8 0 1.8 0 2.6 0 6.3 0.1c5.4 0.1 12.8 0.2 21 0.1 8.2 0 15.6-0.1 21-0.3q3.7-0.1 6.3-0.1 1-0.1 1.8-0.1 0.6 0 0.6 0.1z"/>
						</g>
					</g>
					<g id="&lt;Group&gt;">
						<g id="&lt;Group&gt;">
							<path id="&lt;Path&gt;" class="s5" d="m1140.1 880.7c-0.2 0-0.3-1.5-1.2-3-1-1.6-2.3-2.4-2.2-2.5 0-0.1 1.5 0.6 2.5 2.2 1.1 1.7 1 3.3 0.9 3.3z"/>
						</g>
					</g>
					<g id="&lt;Group&gt;">
						<g id="&lt;Group&gt;">
							<path id="&lt;Path&gt;" class="s5" d="m1150.4 875.4c-0.1 0.1-0.6-0.5-1.1-1.3-0.6-0.8-0.9-1.5-0.8-1.6 0.1-0.1 0.6 0.5 1.1 1.3 0.5 0.9 0.9 1.6 0.8 1.6z"/>
						</g>
					</g>
					<g id="&lt;Group&gt;">
						<g id="&lt;Group&gt;">
							<path id="&lt;Path&gt;" class="s5" d="m1153.2 873.9c-0.1 0.1-0.6-0.3-1.2-0.8-0.6-0.5-1.1-1.1-1-1.1 0.1-0.1 0.6 0.2 1.2 0.8 0.6 0.5 1.1 1 1 1.1z"/>
						</g>
					</g>
					<g id="&lt;Group&gt;">
						<g id="&lt;Group&gt;">
							<path id="&lt;Path&gt;" class="s5" d="m1155 870.6c0 0.1-0.8 0.2-1.9 0.2-1 0.1-1.8 0-1.8-0.1 0-0.2 0.8-0.3 1.8-0.3 1.1 0 1.9 0.1 1.9 0.2z"/>
						</g>
					</g>
					<g id="&lt;Group&gt;">
						<g id="&lt;Group&gt;">
							<path id="&lt;Path&gt;" class="s5" d="m1155.6 868.3c0 0.1-0.9 0.5-2.1 0.6-1.1 0.1-2.1-0.2-2.1-0.3 0.1-0.1 1-0.1 2.1-0.2 1.1 0 2-0.2 2.1-0.1z"/>
						</g>
					</g>
					<g id="&lt;Group&gt;">
						<g id="&lt;Group&gt;">
							<path id="&lt;Path&gt;" class="s5" d="m1149.2 872.4c0 0-0.9 0.1-2.3 0-0.7-0.1-1.5-0.3-2.4-0.6-0.4-0.1-0.9-0.2-1.3-0.5-0.3-0.2-0.5-0.4-0.6-0.7-0.1-0.3 0.1-0.7 0.3-0.9 2.2-1.1 4.3 0.1 5.1 1.2 0.5 0.5 0.7 1.1 0.8 1.5 0.1 0.4 0.1 0.6 0 0.6 0 0-0.1-0.9-1-1.9-0.4-0.5-1.1-1-1.9-1.3-0.8-0.2-1.9-0.3-2.7 0.2-0.3 0.3-0.2 0.7 0.2 0.9 0.4 0.3 0.8 0.4 1.3 0.6 0.8 0.3 1.6 0.4 2.3 0.6 1.3 0.2 2.2 0.2 2.2 0.3z"/>
						</g>
					</g>
					<g id="&lt;Group&gt;">
						<g id="&lt;Group&gt;">
							<path id="&lt;Path&gt;" class="s5" d="m1148.6 872.5c0 0-0.4-0.6-0.3-1.6 0.1-0.5 0.3-1.1 0.6-1.6 0.4-0.5 0.9-1.2 1.9-1.2 0.5 0.1 0.8 0.7 0.7 1.1 0 0.4-0.2 0.7-0.4 1-0.3 0.5-0.7 1-1 1.3-0.7 0.7-1.3 1-1.3 0.9-0.1 0 0.4-0.4 1-1.1 0.3-0.3 0.7-0.8 1-1.3 0.3-0.5 0.5-1.4-0.1-1.5-0.5 0-1.1 0.6-1.4 1-0.4 0.5-0.6 1-0.7 1.5-0.1 0.9 0.1 1.5 0 1.5z"/>
						</g>
					</g>
					<g id="&lt;Group&gt;">
						<g id="&lt;Group&gt;">
							<path id="&lt;Path&gt;" class="s5" d="m1186.4 870c0 0.1-1-0.1-2.6 0.1-1.5 0.2-3.7 0.8-5.6 2.3-1.9 1.5-3 3.5-3.5 5-0.5 1.5-0.6 2.5-0.6 2.5q-0.1 0-0.1-0.7c0.1-0.4 0.2-1.1 0.4-1.9 0.5-1.5 1.6-3.6 3.5-5.2 2-1.6 4.3-2.2 5.9-2.3 0.8-0.1 1.5 0 1.9 0q0.7 0.1 0.7 0.2z"/>
						</g>
					</g>
					<g id="&lt;Group&gt;">
						<g id="&lt;Group&gt;">
							<path id="&lt;Path&gt;" class="s5" d="m1169.6 876.8c0 0.1-2.3 0.4-5.1 0.5-2.9 0-5.1-0.4-5.1-0.5 0-0.1 2.3 0 5.1 0 2.8 0 5.1-0.2 5.1 0z"/>
						</g>
					</g>
					<g id="&lt;Group&gt;">
						<g id="&lt;Group&gt;">
							<path id="&lt;Path&gt;" class="s5" d="m1176.4 876.7c0.1 0.1-0.1 0.5-0.4 1-0.2 0.5-0.3 1-0.5 1-0.1 0-0.1-0.6 0.1-1.2 0.3-0.6 0.8-0.9 0.8-0.8z"/>
						</g>
					</g>
					<g id="&lt;Group&gt;">
						<g id="&lt;Group&gt;">
							<path id="&lt;Path&gt;" class="s5" d="m1179 873.5c0.1 0.1-0.1 0.4-0.5 0.8-0.3 0.4-0.7 0.6-0.8 0.5-0.1-0.1 0.1-0.4 0.5-0.8 0.4-0.4 0.7-0.6 0.8-0.5z"/>
						</g>
					</g>
					<g id="&lt;Group&gt;">
						<g id="&lt;Group&gt;">
							<path id="&lt;Path&gt;" class="s5" d="m1182.7 872c0 0.1-0.5 0.1-1 0.3-0.5 0.2-0.9 0.4-1 0.4-0.1-0.1 0.2-0.6 0.9-0.8 0.6-0.2 1.1 0 1.1 0.1z"/>
						</g>
					</g>
					<g id="&lt;Group&gt;">
						<g id="&lt;Group&gt;">
							<path id="&lt;Path&gt;" class="s5" d="m1185.3 871.3c0.1 0.1-0.1 0.3-0.4 0.4-0.3 0.1-0.6 0.1-0.6 0-0.1-0.1 0.1-0.3 0.4-0.4 0.3-0.1 0.6-0.1 0.6 0z"/>
						</g>
					</g>
				</g>
			</g>
			<g id="&lt;Group&gt;">
				<g id="&lt;Group&gt;">
					<g id="&lt;Group&gt;">
						<g id="&lt;Group&gt;">
							<path id="&lt;Path&gt;" class="s6" d="m1233.8 868.7l-1.3-2.9 31.4-15.8 5.5 12.1-1.9 1c-8.6 4.5-43.9 22.1-50.6 23-7.4 1 16.9-17.4 16.9-17.4z"/>
						</g>
					</g>
					<g id="&lt;Group&gt;">
						<g id="&lt;Group&gt;">
							<path id="&lt;Path&gt;" class="s5" d="m1269.5 861.1q0 0.1-0.5 0.4-0.7 0.3-1.5 0.8-2.3 1.1-5.7 2.8c-4.8 2.4-11.5 5.6-18.9 9-7.5 3.4-14.3 6.3-19.3 8.4q-3.5 1.4-5.9 2.4-0.9 0.3-1.6 0.6-0.6 0.2-0.6 0.2 0 0 0.6-0.3 0.7-0.3 1.5-0.7 2.4-1 5.9-2.5c4.9-2.1 11.7-5.1 19.2-8.5 7.4-3.3 14.1-6.5 19-8.8q3.4-1.7 5.7-2.8 0.9-0.4 1.6-0.7 0.5-0.3 0.5-0.3z"/>
						</g>
					</g>
					<g id="&lt;Group&gt;">
						<g id="&lt;Group&gt;">
							<path id="&lt;Path&gt;" class="s5" d="m1227 881.5c-0.1 0-0.8-1.3-2.3-2.3-1.5-1-3-1.2-3-1.3 0-0.1 1.6-0.1 3.2 0.9 1.6 1.1 2.2 2.6 2.1 2.7z"/>
						</g>
					</g>
					<g id="&lt;Group&gt;">
						<g id="&lt;Group&gt;">
							<path id="&lt;Path&gt;" class="s5" d="m1234.3 872.4c-0.1 0.1-0.8-0.2-1.6-0.7-0.8-0.5-1.4-1-1.3-1.1 0-0.1 0.7 0.2 1.5 0.7 0.8 0.5 1.4 1 1.4 1.1z"/>
						</g>
					</g>
					<g id="&lt;Group&gt;">
						<g id="&lt;Group&gt;">
							<path id="&lt;Path&gt;" class="s5" d="m1236.2 869.9c0 0.1-0.7 0-1.4-0.2-0.8-0.3-1.4-0.6-1.4-0.7 0.1-0.1 0.7 0 1.5 0.3 0.8 0.2 1.4 0.5 1.3 0.6z"/>
						</g>
					</g>
					<g id="&lt;Group&gt;">
						<g id="&lt;Group&gt;">
							<path id="&lt;Path&gt;" class="s5" d="m1236.5 866.2c0 0.1-0.7 0.5-1.6 0.9-0.9 0.5-1.7 0.7-1.7 0.6-0.1-0.1 0.6-0.5 1.5-1 1-0.4 1.7-0.6 1.8-0.5z"/>
						</g>
					</g>
					<g id="&lt;Group&gt;">
						<g id="&lt;Group&gt;">
							<path id="&lt;Path&gt;" class="s5" d="m1236.1 863.8c0.1 0.1-0.6 0.8-1.6 1.4-1.1 0.5-2 0.7-2 0.6-0.1-0.1 0.8-0.5 1.8-1 1-0.5 1.7-1.1 1.8-1z"/>
						</g>
					</g>
					<g id="&lt;Group&gt;">
						<g id="&lt;Group&gt;">
							<path id="&lt;Path&gt;" class="s5" d="m1231.9 870.2c0 0-0.7 0.5-2 0.9-0.7 0.2-1.5 0.4-2.4 0.5-0.5 0-1 0.1-1.5 0-0.3 0-0.6-0.1-0.8-0.4-0.2-0.2-0.2-0.7-0.1-0.9 1.5-1.9 4-1.7 5.2-1 0.6 0.3 1 0.7 1.3 1 0.2 0.3 0.3 0.5 0.3 0.6-0.1 0-0.5-0.8-1.8-1.4-0.6-0.3-1.3-0.4-2.2-0.3-0.8 0.1-1.9 0.5-2.4 1.3-0.2 0.3 0.1 0.7 0.6 0.7 0.4 0.1 0.9 0 1.3 0 0.9-0.1 1.7-0.2 2.4-0.4 1.3-0.4 2.1-0.7 2.1-0.6z"/>
						</g>
					</g>
					<g id="&lt;Group&gt;">
						<g id="&lt;Group&gt;">
							<path id="&lt;Path&gt;" class="s5" d="m1231.4 870.5c0 0-0.5-0.4-0.8-1.3-0.2-0.5-0.3-1.1-0.2-1.8 0.2-0.6 0.4-1.4 1.3-1.8 0.5-0.1 1.6 0.9 1.7 1.3 0.2 0.3-0.6 0.1-0.6 0.5-0.1 0.6-0.2 1.2-0.4 1.6-0.4 0.9-0.8 1.4-0.8 1.4-0.1 0 0.2-0.6 0.5-1.5q0.2-0.7 0.3-1.6c0.1-0.5-0.1-1.4-0.6-1.3-0.6 0.2-0.8 1-1 1.5-0.1 0.6-0.1 1.2 0.1 1.6 0.2 0.9 0.6 1.4 0.5 1.4z"/>
						</g>
					</g>
					<g id="&lt;Group&gt;">
						<g id="&lt;Group&gt;">
							<path id="&lt;Path&gt;" class="s5" d="m1264.9 852.7c0.1 0.1-0.9 0.4-2.3 1.2-1.3 0.8-3.1 2.3-4.2 4.4-1.1 2.2-1.2 4.4-1.1 6 0.1 1.6 0.5 2.5 0.4 2.6q0 0-0.3-0.7c-0.1-0.4-0.3-1.1-0.4-1.9-0.2-1.6-0.1-3.9 1.1-6.2 1.1-2.2 2.9-3.7 4.4-4.5 0.7-0.4 1.3-0.6 1.7-0.7q0.7-0.2 0.7-0.2z"/>
						</g>
					</g>
					<g id="&lt;Group&gt;">
						<g id="&lt;Group&gt;">
							<path id="&lt;Path&gt;" class="s5" d="m1252.4 865.8c0 0.1-1.9 1.4-4.5 2.5-2.6 1.2-4.8 1.8-4.8 1.7-0.1-0.1 2.1-0.9 4.6-2 2.6-1.2 4.6-2.3 4.7-2.2z"/>
						</g>
					</g>
					<g id="&lt;Group&gt;">
						<g id="&lt;Group&gt;">
							<path id="&lt;Path&gt;" class="s5" d="m1258.6 862.9c0.1 0.1 0 0.5 0 1.1 0 0.6 0.1 1.1 0 1.1-0.1 0.1-0.4-0.4-0.4-1.1 0-0.6 0.3-1.1 0.4-1.1z"/>
						</g>
					</g>
					<g id="&lt;Group&gt;">
						<g id="&lt;Group&gt;">
							<path id="&lt;Path&gt;" class="s5" d="m1259.6 858.9c0.1 0.1 0.1 0.5-0.1 1-0.2 0.5-0.4 0.8-0.5 0.8-0.2-0.1-0.1-0.5 0.1-1 0.2-0.4 0.4-0.8 0.5-0.8z"/>
						</g>
					</g>
					<g id="&lt;Group&gt;">
						<g id="&lt;Group&gt;">
							<path id="&lt;Path&gt;" class="s5" d="m1262.4 856.1c0 0.1-0.4 0.3-0.8 0.7-0.4 0.3-0.7 0.7-0.8 0.7-0.1 0 0-0.6 0.5-1.1 0.5-0.4 1-0.4 1.1-0.3z"/>
						</g>
					</g>
					<g id="&lt;Group&gt;">
						<g id="&lt;Group&gt;">
							<path id="&lt;Path&gt;" class="s5" d="m1264.5 854.4c0.1 0-0.1 0.3-0.3 0.5-0.2 0.2-0.4 0.3-0.5 0.3-0.1-0.1 0-0.4 0.2-0.6 0.2-0.2 0.5-0.3 0.6-0.2z"/>
						</g>
					</g>
				</g>
			</g>
			<g id="&lt;Group&gt;">
				<g id="&lt;Group&gt;">
					<g id="&lt;Group&gt;">
						<g id="&lt;Group&gt;">
							<g id="&lt;Group&gt;">
								<g id="&lt;Group&gt;">
									<g id="&lt;Group&gt;">
										<g id="&lt;Group&gt;">
											<path id="&lt;Path&gt;" class="s4" d="m1225.1 447.3l-5.8-71.4 30 0.5c0 0 1.4-10.5-3-33.6-2.7-14.2-12.1-22.8-22.7-28v-0.2l-0.9-0.2c-13.5-6.3-27.6-7.2-27.6-7.2l-36.9 0.4c0 0-28.1-3.5-43.7 16.6-6.1 7.7-24.7 60.7-24.7 60.7l44.3 21.3-4.2-29.4c0 0 0.9 21.3 3.6 28.1 1.5 3.7 5.9 15.4 5.9 15.4l-0.6 35.3z"/>
										</g>
									</g>
								</g>
							</g>
						</g>
						<g id="&lt;Group&gt;">
							<path id="&lt;Path&gt;" class="s4" d="m1204.8 365.5l-5.5 23.3h51.7l-3.4-39.1z"/>
						</g>
						<g id="&lt;Group&gt;">
							<g id="&lt;Group&gt;">
								<path id="&lt;Path&gt;" class="s5" d="m1251 388.8c0-0.1-2.6-0.4-6.9-0.6-4.2-0.3-10.1-0.5-16.5-0.5-6.5 0.1-12.4 0.3-16.6 0.7-4.2 0.3-6.8 0.7-6.8 0.8 0 0.2 2.6 0.1 6.8 0 4.3-0.1 10.1-0.3 16.6-0.3 6.4-0.1 12.3 0 16.5 0.1 4.2 0 6.9 0 6.9-0.2z"/>
							</g>
						</g>
						<g id="&lt;Group&gt;">
							<g id="&lt;Group&gt;">
								<path id="&lt;Path&gt;" class="s5" d="m1202.5 349.5c-0.1 0-0.2 2.3-0.1 6 0 3.6 0.1 8.7 0.4 14.3 0.2 5.5 0.4 10.6 0.7 14.2 0.2 3.7 0.5 6 0.6 6 0.2-0.1 0.2-2.3 0.2-6 0-3.6-0.2-8.7-0.4-14.3-0.2-5.6-0.5-10.6-0.7-14.3-0.3-3.6-0.5-5.9-0.7-5.9z"/>
							</g>
						</g>
						<g id="&lt;Group&gt;" style="opacity: .3">
							<path id="&lt;Path&gt;" class="s9" d="m1155.5 369.7c0 0 11.5 85.2 43.8 82.9 0 0 14.5-0.1 19.2-9.8v-3.8z"/>
						</g>
					</g>
				</g>
				<g id="&lt;Group&gt;" style="opacity: .3">
					<path id="&lt;Path&gt;" class="s9" d="m1202.5 354.6l-6.1 41.7 4 7.3 6.6-14.3-2.8-0.1z"/>
				</g>
				<g id="&lt;Group&gt;">
					<g id="&lt;Group&gt;">
						<path id="&lt;Path&gt;" class="s5" d="m1139.4 420.3c-0.1 0-0.4-0.7-0.9-2-0.5-1.3-1.2-3.2-1.9-5.6-1.6-4.7-3.5-11.4-5-18.9-1.5-7.4-2.2-14.3-2.4-19.3-0.1-2.5-0.2-4.6-0.1-6 0-1.4 0-2.1 0.1-2.1 0.2 0 0.3 3.1 0.7 8 0.4 5 1.3 11.8 2.7 19.2 1.5 7.5 3.3 14.1 4.7 18.9q0.9 3.4 1.6 5.7c0.4 1.3 0.5 2.1 0.5 2.1z"/>
					</g>
				</g>
				<g id="&lt;Group&gt;">
					<g id="&lt;Group&gt;">
						<path id="&lt;Path&gt;" class="s5" d="m1152.4 444.8c-0.3 0.1-1.1-1.8-1.8-4.1-0.7-2.4-1-4.3-0.7-4.4 0.2-0.1 1 1.7 1.7 4.1 0.7 2.3 1.1 4.3 0.8 4.4z"/>
					</g>
				</g>
				<g id="&lt;Group&gt;">
					<g id="&lt;Group&gt;">
						<path id="&lt;Path&gt;" class="s5" d="m1156.9 444.5c-0.3 0-1.2-2.7-1.2-6.3-0.1-3.5 0.7-6.3 1-6.2 0.3 0 0 2.8 0 6.2 0.1 3.4 0.5 6.2 0.2 6.3z"/>
					</g>
				</g>
				<g id="&lt;Group&gt;">
					<g id="&lt;Group&gt;">
						<path id="&lt;Path&gt;" class="s5" d="m1135 407.2c-0.1 0.2-10.4-4.6-23-10.9-12.6-6.3-22.7-11.6-22.5-11.9 0.1-0.2 10.4 4.7 23 10.9 12.6 6.3 22.7 11.6 22.5 11.9z"/>
					</g>
				</g>
			</g>
			<g id="&lt;Group&gt;">
				<g id="&lt;Group&gt;">
					<g id="&lt;Group&gt;">
						<g id="&lt;Group&gt;">
							<g id="&lt;Group&gt;">
								<g id="&lt;Group&gt;">
									<g id="&lt;Group&gt;">
										<g id="&lt;Group&gt;">
											<g id="&lt;Group&gt;">
												<path id="&lt;Path&gt;" class="s7" d="m1153.2 314.5c0.2-10.1 0.3-20.8 0.3-20.8 0 0-13-2.5-15.3-19.5-2.1-16.3 3.9-54.5 3.9-54.5 19-7.2 38.7-0.7 51.7 14.7l-3.3 82.1c-0.3 9.5-8.8 16.8-19 16.3-10.4-0.5-18.5-8.7-18.3-18.3z"/>
											</g>
										</g>
									</g>
									<g id="&lt;Group&gt;">
										<g id="&lt;Group&gt;">
											<g id="&lt;Group&gt;">
												<g id="&lt;Group&gt;">
													<path id="&lt;Path&gt;" class="s5" d="m1141.1 250.2c0 1.2 0.9 2.2 2.1 2.3 1.2 0 2.2-0.8 2.3-2 0-1.1-0.9-2.1-2.1-2.2-1.2-0.1-2.2 0.7-2.3 1.9z"/>
												</g>
											</g>
										</g>
										<g id="&lt;Group&gt;">
											<g id="&lt;Group&gt;">
												<g id="&lt;Group&gt;">
													<g id="&lt;Group&gt;">
														<path id="&lt;Path&gt;" class="s5" d="m1140.3 247.3c0.3 0.3 2-0.9 4.3-0.8 2.4 0 4 1.3 4.3 1 0.1-0.1-0.1-0.6-0.9-1.2-0.7-0.6-1.9-1.1-3.4-1.1-1.5-0.1-2.7 0.4-3.4 1-0.8 0.5-1 1-0.9 1.1z"/>
													</g>
												</g>
											</g>
										</g>
									</g>
									<g id="&lt;Group&gt;">
										<g id="&lt;Group&gt;">
											<g id="&lt;Group&gt;">
												<g id="&lt;Group&gt;">
													<path id="&lt;Path&gt;" class="s5" d="m1164.9 251.7c0 1.1 0.9 2.1 2.1 2.2 1.2 0.1 2.2-0.7 2.3-1.9 0.1-1.1-0.9-2.1-2.1-2.2-1.2-0.1-2.2 0.7-2.3 1.9z"/>
												</g>
											</g>
										</g>
										<g id="&lt;Group&gt;">
											<g id="&lt;Group&gt;">
												<g id="&lt;Group&gt;">
													<g id="&lt;Group&gt;">
														<path id="&lt;Path&gt;" class="s5" d="m1164.8 248.8c0.2 0.3 1.9-0.9 4.3-0.8 2.3 0 4 1.3 4.3 1 0.1-0.1-0.2-0.6-0.9-1.2-0.7-0.6-2-1.1-3.4-1.2-1.5 0-2.7 0.5-3.5 1-0.7 0.6-0.9 1.1-0.8 1.2z"/>
													</g>
												</g>
											</g>
										</g>
									</g>
									<g id="&lt;Group&gt;">
										<g id="&lt;Group&gt;">
											<g id="&lt;Group&gt;">
												<g id="&lt;Group&gt;">
													<path id="&lt;Path&gt;" class="s5" d="m1155.8 266c0-0.1-1.4-0.4-3.8-0.8-0.6-0.1-1.1-0.2-1.2-0.6-0.2-0.4 0.1-1.1 0.4-1.8q0.9-2.1 1.9-4.5c2.6-6.4 4.6-11.7 4.3-11.8-0.3-0.1-2.6 5-5.2 11.4q-1 2.4-1.9 4.6c-0.2 0.7-0.6 1.4-0.3 2.3 0.1 0.5 0.6 0.8 0.9 0.9 0.4 0.2 0.8 0.2 1.1 0.2 2.3 0.2 3.8 0.2 3.8 0.1z"/>
												</g>
											</g>
										</g>
									</g>
									<g id="&lt;Group&gt;">
										<g id="&lt;Group&gt;">
											<g id="&lt;Group&gt;">
												<path id="&lt;Path&gt;" class="s8" d="m1153.5 293.7c0 0 11.4 1.1 22.9-5.5 0 0-5.8 11.6-22.8 9.6z"/>
											</g>
										</g>
									</g>
								</g>
							</g>
						</g>
					</g>
				</g>
				<g id="&lt;Group&gt;">
					<g id="&lt;Group&gt;">
						<path id="&lt;Path&gt;" class="s5" d="m1172.3 242c-0.5 0.8-2.3 0.5-4.3 0.1-2-0.4-3.7-0.8-3.9-1.6-0.2-0.8 1.8-2 4.5-1.5 2.7 0.5 4.2 2.4 3.7 3z"/>
					</g>
				</g>
				<g id="&lt;Group&gt;">
					<g id="&lt;Group&gt;">
						<path id="&lt;Path&gt;" class="s5" d="m1149 238.6c-0.2 0.9-2.1 1.2-4.3 1.3-2.2 0.1-4.2-0.1-4.4-0.9-0.3-0.8 1.6-2.1 4.2-2.2 2.7-0.2 4.6 1 4.5 1.8z"/>
					</g>
				</g>
				<g id="&lt;Group&gt;">
					<path id="&lt;Path&gt;" class="s8" d="m1155.9 271.6c-0.5-0.1-1.1 0.2-1.3 0.6-0.3 0.5-0.2 1.3 0.3 1.7 0.4 0.4 1.2 0.4 1.7 0 0.4-0.4 0.6-1.1 0.3-1.7-0.3-0.5-1-0.8-1.5-0.6"/>
				</g>
				<g id="&lt;Group&gt;">
					<g id="&lt;Group&gt;">
						<path id="&lt;Path&gt;" class="s5" d="m1156.4 271.9c0.1-0.1-0.4-0.7-1.4-0.5-0.5 0.1-1.1 0.5-1.3 1.3-0.2 0.6 0 1.5 0.7 2.1 0.8 0.5 1.7 0.4 2.3 0 0.6-0.4 0.8-1.2 0.7-1.7-0.2-1-1-1.2-1-1-0.1 0.1 0.3 0.5 0.2 1.1 0 0.3-0.2 0.6-0.5 0.7-0.3 0.2-0.7 0.2-1 0-0.3-0.2-0.4-0.7-0.4-1 0.1-0.3 0.3-0.6 0.6-0.7 0.5-0.4 1-0.2 1.1-0.3z"/>
					</g>
				</g>
				<g id="&lt;Group&gt;">
					<g id="&lt;Group&gt;">
						<path id="&lt;Path&gt;" class="s5" d="m1185.9 254.4c-2 4.7-7 8.3-6.3 13.4 0.5 3.2 2.6 6.3 2.2 9.6-0.6 4.1-4.8 6.9-5.4 11-0.8 5 4.1 8.9 6.1 13.6 2.8 6.9-0.8 14.5-0.9 21.9-0.1 11.4 9.5 21.9 20.8 22.9 4.5 0.3 9.7-1 12.1-5 1.9-3.2 1.5-7.3 2.7-10.9 1.7-5.4 6.8-9.3 7.9-14.8 2-10.1-10.2-18.4-9.4-28.6 0.3-4.4 3-8.2 4.2-12.5 1.5-5.5 0.1-11.7-3.6-16.1-3-3.6-7.4-6-9.9-9.9-2.9-4.4-3-10-4.1-15.2-2.7-12.6-12.2-23.6-24.3-28-12.1-4.5-26.4-2.3-36.6 5.5 0 0-2.9 13.2 10.6 15.4 13.5 2.2 19.8-0.3 21.3 5.1 0 0-1.5 6.4 4.1 12.4 5.6 6.1 10.8 4.8 8.5 10.2z"/>
					</g>
					<g id="&lt;Group&gt;">
						<g id="&lt;Group&gt;">
							<path id="&lt;Path&gt;" class="s6" d="m1207.5 345.8q0 0.1-1.2-0.1c-0.8-0.1-2-0.4-3.5-0.9-2.9-1.1-7-3.4-10.5-7.8-1.7-2.1-3.3-4.8-4.4-7.9-1.1-3.1-1.8-6.6-1.8-10.3-0.1-3.6 0.4-7.5 1.4-11.4q0.8-2.9 1.9-5.8c0.8-1.9 1.7-3.7 2.2-5.7 0.6-2 0.5-4 0-5.9-0.5-1.9-1.4-3.7-2.3-5.5-0.8-1.7-1.7-3.5-2.3-5.4-0.6-1.8-0.8-3.8-0.4-5.7 0.8-3.8 3.1-6.6 4.4-9.4 1.4-2.9 1.9-5.9 1.8-8.6-0.2-5.4-2.5-9.4-4.4-11.8-2-2.3-3.5-3.2-3.4-3.3 0 0 1.6 0.8 3.7 3.1 2 2.3 4.5 6.4 4.9 12 0.1 2.8-0.3 6-1.8 8.9-1.4 3-3.6 5.8-4.3 9.3-0.7 3.4 1 7 2.7 10.5 0.9 1.8 1.8 3.6 2.4 5.7 0.6 2 0.7 4.3 0 6.4-0.5 2.1-1.5 3.9-2.2 5.8q-1.1 2.8-1.9 5.7c-1 3.8-1.5 7.5-1.5 11.1 0.1 7.2 2.5 13.5 5.9 17.8 3.3 4.3 7.3 6.7 10.1 7.8 2.8 1.1 4.5 1.3 4.5 1.4z"/>
						</g>
					</g>
					<g id="&lt;Group&gt;">
						<g id="&lt;Group&gt;">
							<path id="&lt;Path&gt;" class="s6" d="m1205.5 244.9c0 0.1-1 0.3-3 0.5-1.9 0.1-4.7 0.3-8.2-0.3-3.4-0.6-7.7-2.2-10.4-6.3-1.3-2-1.9-4.4-2.7-6.7-0.9-2.3-2.4-4.2-4.6-5.6-4.4-2.8-9.5-3.1-14-3.7-4.6-0.5-8.8-1.4-11.7-3.6-2.9-2.1-4.4-4.7-4.8-6.7-0.2-0.9-0.2-1.7-0.1-2.2q0.1-0.8 0.2-0.8c0.1 0-0.2 1.1 0.3 2.9 0.5 1.8 2 4.3 4.8 6.2 2.8 2 6.9 2.8 11.4 3.3 4.5 0.5 9.8 0.8 14.5 3.7 2.3 1.5 4.1 3.7 4.9 6.2 0.9 2.3 1.4 4.7 2.6 6.5 2.4 3.7 6.5 5.4 9.7 6.1 3.4 0.7 6.2 0.6 8.1 0.6 1.9-0.1 3-0.2 3-0.1z"/>
						</g>
					</g>
					<g id="&lt;Group&gt;">
						<g id="&lt;Group&gt;">
							<path id="&lt;Path&gt;" class="s6" d="m1200.5 228.6c0 0.1-0.8 0.3-2.3 0.4-1.5 0-3.8-0.3-6.3-1.4-1.3-0.6-2.6-1.5-3.7-2.6-1.2-1.2-2.2-2.6-3.1-4.2-1.8-3-3.6-6.8-7.3-8.3-3.7-1.6-7.7-1.2-11.2-1-3.6 0.3-6.9 0.5-9.6-0.1-2.7-0.5-4.8-1.6-5.9-2.6-0.6-0.5-1-1-1.2-1.3q-0.3-0.6-0.3-0.6c0.1-0.1 0.6 0.7 1.8 1.6 1.1 0.9 3.1 1.8 5.7 2.2 2.7 0.4 5.8 0.2 9.4-0.2 3.5-0.2 7.7-0.7 11.7 1 2 0.9 3.6 2.4 4.8 4 1.2 1.6 2 3.3 2.9 4.8 0.9 1.6 1.8 3 2.9 4.1 1.1 1 2.2 1.9 3.4 2.5 2.4 1.2 4.5 1.6 6 1.7 1.5 0.1 2.3-0.1 2.3 0z"/>
						</g>
					</g>
					<g id="&lt;Group&gt;">
						<g id="&lt;Group&gt;">
							<path id="&lt;Path&gt;" class="s6" d="m1213.5 341.5c-0.1 0 0.5-1.3 1.2-3.8 0.8-2.4 1.5-6.1 1.4-10.7-0.2-4.5-1.3-10-4.3-15.3-1.5-2.6-3.7-4.9-5.5-7.8-0.9-1.4-1.7-3-2-4.8-0.3-1.8-0.1-3.7 0.4-5.4 1.2-3.5 3.2-6.4 3.6-9.6 0.5-3.1-1.1-6-2.6-8.6-0.8-1.3-1.5-2.6-2.1-4-0.6-1.4-1-2.8-1.2-4.2-0.3-2.8 0-5.3 0.3-7.6 0.5-4.6 0.1-8.3-1-10.6-1.1-2.4-2.5-3.1-2.4-3.2q0.1 0 0.3 0.2c0.1 0 0.4 0.2 0.6 0.4 0.6 0.4 1.3 1.2 1.9 2.4 1.2 2.3 1.8 6.3 1.3 10.9-0.2 2.3-0.4 4.8-0.1 7.4 0.3 2.7 1.6 5.2 3.2 7.8 0.8 1.3 1.6 2.7 2.2 4.2 0.6 1.6 0.9 3.4 0.6 5.1-0.5 3.5-2.5 6.4-3.6 9.7-0.5 1.6-0.7 3.3-0.4 4.9 0.3 1.6 1 3.1 1.9 4.5 1.7 2.7 3.9 5.1 5.4 7.9 3.1 5.4 4.1 11 4.2 15.7 0 4.7-0.8 8.4-1.7 10.9q-0.6 1.8-1.1 2.7-0.5 0.9-0.5 0.9z"/>
						</g>
					</g>
				</g>
			</g>
			<g id="&lt;Group&gt;">
				<g id="&lt;Group&gt;">
					<path id="&lt;Path&gt;" class="s5" d="m1132 714.2c0 0-13.5-127.7-14.3-174.9-0.7-47.2 21.3-93.7 21.3-93.7l86.1-3.7c0 0 17.1 47.9 17.4 68 0.6 39.1-10.4 77.7-9.2 108.7l2.9 95.6"/>
				</g>
				<g id="&lt;Group&gt;">
					<g id="&lt;Group&gt;">
						<path id="&lt;Path&gt;" class="s10" d="m1239.1 557.2c0 0-0.5 0.4-1.4 1.1q-0.4 0.2-0.8 0.5c-0.2 0.3-0.5 0.5-0.8 0.8-0.6 0.6-1.3 1.3-1.9 2.2-2.8 3.4-4.8 9.5-6.8 17.1-1 3.7-2.1 8-4.3 12.1-0.6 1-1.2 2.1-2 3-0.3 0.5-0.7 1-1.1 1.5l-1.3 1.3c-1.8 1.8-4.1 3.1-6.5 4.2-4.8 2.1-10.3 3.1-15.2 5.6-5 2.4-8.8 7.2-11.1 12.6-2.4 5.4-3.9 11.1-5.9 16.4-2 5.3-4.7 10.4-9 13.7-4.3 3.3-9.5 4.1-14.1 4.4-4.6 0.2-8.9 0.1-12.8 0.7-3.8 0.5-7.2 1.7-9.6 3.6-2.4 1.9-3.9 4.3-4.5 6.4-0.7 2-0.6 3.7-0.4 4.9 0.3 1.1 0.6 1.6 0.5 1.6 0 0-0.4-0.5-0.7-1.6-0.3-1.1-0.5-2.9 0.2-5.1 0.6-2.1 2-4.6 4.5-6.6 2.5-2 6-3.3 9.9-3.9 3.9-0.7 8.3-0.6 12.8-0.9 4.6-0.3 9.6-1.1 13.6-4.3 4.1-3.1 6.7-8 8.6-13.2 2-5.3 3.5-11 6-16.5 2.3-5.6 6.3-10.6 11.5-13.1 5.2-2.6 10.6-3.6 15.3-5.6 2.4-1 4.6-2.3 6.3-3.9l1.2-1.3c0.4-0.4 0.8-0.9 1.1-1.4 0.8-0.9 1.3-1.9 1.9-2.9 2.2-4 3.3-8.2 4.4-11.9 2-7.6 4.2-13.8 7.1-17.2 0.7-0.9 1.4-1.5 2.1-2.1 0.3-0.3 0.6-0.6 0.9-0.8q0.4-0.3 0.8-0.5 1.5-0.9 1.5-0.9z"/>
					</g>
				</g>
				<g id="&lt;Group&gt;">
					<g id="&lt;Group&gt;">
						<path id="&lt;Path&gt;" class="s10" d="m1239.6 498.1q0.1 0 0.2 1.7c0 1.2-0.2 2.8-0.6 4.9-1 4.2-4.1 9.9-9.8 15.1-2.8 2.6-6.2 5.1-10.1 7.3-3.8 2.3-8.1 4.5-12.5 7-4.3 2.4-8.8 5.2-12.7 9-4 3.6-7 8.4-9.7 13.5-2.7 5.1-5.1 10.3-8.4 14.8-1.6 2.3-3.4 4.3-5.5 6.1-2 1.7-4.2 3.1-6.5 4.3-4.5 2.4-9.1 3.8-13.3 5.1-4.3 1.4-8.3 2.5-11.8 4-3.5 1.4-6.5 3.1-9 4.8-2.4 1.7-4.3 3.5-5.6 5.2-2.7 3.3-3.2 5.7-3.4 5.6q0 0 0.6-1.6c0.5-1.1 1.2-2.6 2.5-4.3 1.3-1.7 3.1-3.6 5.6-5.4 2.5-1.8 5.5-3.5 9-5 3.5-1.5 7.5-2.7 11.8-4.1 4.2-1.4 8.8-2.8 13.2-5.1 2.2-1.2 4.3-2.6 6.3-4.3 1.9-1.7 3.7-3.7 5.3-5.9 3.2-4.4 5.5-9.5 8.3-14.6 2.7-5.2 5.8-10.1 9.9-13.9 4-3.8 8.6-6.6 13-9.1 4.4-2.4 8.6-4.6 12.5-6.8 3.9-2.2 7.2-4.7 10-7.2 5.7-5 8.8-10.5 9.9-14.6 1-4.1 0.7-6.5 0.8-6.5z"/>
					</g>
				</g>
				<g id="&lt;Group&gt;">
					<g id="&lt;Group&gt;">
						<path id="&lt;Path&gt;" class="s10" d="m1118.2 546.1q0 0-0.2-0.4c-0.1-0.3-0.3-0.7-0.4-1.2-0.2-1.1-0.4-2.8 0.2-4.8 1.1-4.1 5.6-9.1 12.7-11.7 3.5-1.2 7.6-1.9 11.8-3 4.1-1.1 8.6-2.7 12-6.2 1.7-1.7 3.1-3.7 4.3-6 1.1-2.2 2-4.6 2.9-7.1 1.8-5 3.3-10.5 6.4-15.4 3-4.9 7.9-8.4 13-10.1 5.1-1.9 10.2-2.7 15-3.8 4.8-1.1 9.2-2.4 13-4.5 3.7-2.1 6.7-4.9 8.8-7.9 4.3-6 5.5-12.1 5.6-16.2 0.1-4.1-0.5-6.4-0.4-6.4 0 0 0.8 2.2 0.8 6.4 0 4.1-1 10.4-5.4 16.6-2.1 3.1-5.1 6.1-9 8.3-3.8 2.2-8.4 3.5-13.2 4.6-4.8 1.1-9.9 2-14.8 3.8-5 1.7-9.6 5-12.5 9.8-3 4.7-4.5 10.1-6.3 15.1-0.9 2.5-1.9 5-3.1 7.3-1.2 2.3-2.7 4.4-4.4 6.2-3.6 3.6-8.3 5.2-12.5 6.3-4.3 1.1-8.3 1.8-11.8 2.9-6.9 2.4-11.3 7.2-12.5 11.1-0.6 2-0.5 3.6-0.4 4.7 0.3 1 0.4 1.6 0.4 1.6z"/>
					</g>
				</g>
				<g id="&lt;Group&gt;">
					<g id="&lt;Group&gt;">
						<path id="&lt;Path&gt;" class="s10" d="m1232.2 654q0.1 0 0.2 1.3c0 0.8 0 2.1-0.4 3.6-0.7 3.1-3.1 7.3-7.6 10.8-2.2 1.8-4.8 3.4-7.9 4.7-3 1.3-6.4 2.4-9.9 3.5-3.6 1.1-7.3 2.2-10.9 3.9-3.6 1.7-6.9 4.1-9.8 7.2-2.9 3-5.4 6.4-8.2 9.3-2.8 3-6 5.4-9.3 7.2-6.5 3.7-13.4 4.9-19 5-5.6 0.1-10.1-1.1-13.1-2.2-1.4-0.5-2.6-1-3.3-1.4q-1.1-0.6-1.1-0.6 0-0.1 1.2 0.4c0.8 0.3 1.9 0.8 3.4 1.2 2.9 1 7.4 2 12.9 1.9 5.5-0.2 12.2-1.5 18.6-5.1 3.2-1.8 6.2-4.2 8.9-7.1 2.8-2.9 5.3-6.2 8.2-9.3 3-3.2 6.5-5.7 10.2-7.4 3.7-1.7 7.4-2.9 11-4 3.5-1 6.9-2 9.9-3.3 3-1.2 5.6-2.8 7.8-4.5 4.4-3.3 6.8-7.3 7.6-10.3 0.8-3 0.5-4.8 0.6-4.8z"/>
					</g>
				</g>
			</g>
			<g id="&lt;Group&gt;">
				<path id="&lt;Path&gt;" class="s7" d="m1222.4 388.9l-16.7 0.4c-1 5.6-3.7 9.5-3.7 9.5-14-24.2-24.8-56.6-27.4-69.6q0.5-2 1.4-4.4c0.7-1.8 0.1-5.4-0.2-7.3-0.5-2.9-1.3-6.8-1.5-8.6-0.8-5.5-1.7-6.4-3.6-5.8-2.6 0.9 1.1 15.5-1.1 15.8-1.1 0.2-2.5-4.8-2.9-8.9-0.4-4.1-2.3-16.8-3.6-17.6-2-1.2-3.8 0.7-3.3 4.8 0.5 4.1 1.2 16.5-1 16.7-2.1 0.1-3.9-20.8-3.9-20.8 0 0 0.3-4.6-2.2-4.5-4.5 0.2-1 22.3-0.6 24.4 0.3 1.4-2.1 1.7-2.3 0.1-0.2-1.6-1.3-20.9-5.9-20.7-3.6 0.1 2.7 18.1 0.7 22.3-1.9 4.2-3.3-14.2-6.7-13.9-1.3 0.1-2.2 0.3 0.1 10.7 1.3 5.6 4.9 15.9 8.1 24.4 5.4 28.9 28.9 121.4 65.7 104.5 20.7-9.5 29-51.5 29-51.5z"/>
				<g id="&lt;Group&gt;">
					<g id="&lt;Group&gt;">
						<path id="&lt;Path&gt;" class="s8" d="m1151.3 314.4c0 0 0.2 0 0.5-0.1 0.3 0 0.8-0.4 0.7-1.1 0-1.3-0.2-3.1-0.5-5.4-0.2-2.4-0.9-5.2-0.9-8.5q0-2.5 0.1-5.4c0.1-1 0.1-1.9 0.3-2.9 0.2-0.9 0.8-1.9 1.5-1.8h0.1c0.7 0 1.2 0.5 1.5 1.4 0.2 0.8 0.3 1.7 0.2 2.7 0.5 5.1 1 10.7 2.2 16.7q0.2 1.1 0.5 2.3 0.2 0.5 0.4 1.1c0.2 0.2 0.2 0.4 0.4 0.6 0.1 0.2 0.3 0.5 0.8 0.5 0.9 0 1.1-0.7 1.3-1q0.2-0.6 0.4-1.2 0.2-1.3 0.3-2.5c0.2-3.2 0.1-6.6-0.2-10 0-1.7-0.5-3.4-0.2-5 0.2-0.8 0.5-1.5 1-1.9q0.4-0.2 0.9-0.1 0.2 0.1 0.5 0.2c0.1 0.2 0.1 0.1 0.2 0.3 0.6 1.5 1 3.3 1.4 5.1q0.5 2.6 0.9 5.4 0.4 2.7 0.8 5.5c0.1 1.8 0.4 3.8 0.9 5.7 0.2 0.9 0.5 1.9 0.9 2.8 0.2 0.5 0.4 0.9 0.8 1.4 0.2 0.2 0.6 0.6 1.2 0.5 0.6-0.2 0.7-0.7 0.8-0.9 0.3-1.2 0.3-2.2 0.2-3.2q0-1.4-0.2-2.9c-0.1-1.7-0.3-3.4-0.3-5-0.1-0.8-0.1-1.6 0-2.4 0.1-0.4 0.1-0.8 0.3-1.1q0.1-0.2 0.2-0.3c0 0 0 0 0 0l0.3-0.1c1.3-0.5 1.8 1.3 2.1 2.8 0.3 1.6 0.5 3.2 0.8 4.7 0.6 3.2 1.2 6.3 1.6 9.3 0.1 1.5 0.2 3.1-0.2 4.3q-0.7 2.2-1.4 4.3v0.2 0.1c2.4 10.7 5.8 20.4 8.9 28.9 3.2 8.5 6.4 15.9 9.2 21.9 2.8 6.1 5.3 10.7 7 13.9q1.3 2.3 2.1 3.6 0.7 1.2 0.7 1.2 0.1 0-0.6-1.3-0.7-1.4-1.9-3.7c-1.6-3.2-4-7.9-6.7-13.9-2.7-6.1-5.8-13.5-8.9-22-3.1-8.5-6.4-18.2-8.8-28.8v0.2q0.7-2.1 1.4-4.2c0.6-1.6 0.4-3.2 0.3-4.8-0.4-3.1-1-6.2-1.6-9.3-0.3-1.6-0.5-3.2-0.8-4.8-0.2-0.8-0.3-1.7-0.8-2.5-0.2-0.4-0.5-0.9-1.1-1.1-0.6-0.3-1.1-0.2-1.6-0.1l-0.3 0.1c-0.2 0.1-0.3 0.2-0.5 0.3-0.2 0.2-0.4 0.4-0.5 0.7-0.2 0.5-0.2 0.9-0.3 1.3-0.1 0.9-0.1 1.8-0.1 2.6 0.1 1.7 0.3 3.4 0.4 5.1q0.1 1.4 0.2 2.9c0 0.9 0.1 2-0.1 2.7-0.1 0.2-0.2 0.1-0.1 0.2v0.1c0-0.1 0 0.1 0 0q0 0 0-0.1c0 0 0.1 0 0.1 0q-0.1-0.1-0.2-0.2c-0.2-0.2-0.4-0.6-0.6-1-0.3-0.9-0.6-1.8-0.8-2.7-0.5-1.8-0.7-3.7-0.9-5.5q-0.4-2.9-0.8-5.6-0.4-2.8-1-5.5c-0.4-1.8-0.6-3.5-1.5-5.3 0-0.2-0.4-0.6-0.6-0.7q-0.3-0.2-0.7-0.3c-0.6-0.2-1.2-0.1-1.7 0.2-1 0.7-1.3 1.7-1.5 2.6-0.2 1-0.2 1.9-0.1 2.8q0.2 1.2 0.3 2.5c0.2 3.4 0.4 6.7 0.2 9.8q-0.1 1.2-0.3 2.4-0.1 0.5-0.3 1-0.1 0.2-0.2 0.4c-0.1 0.1-0.2-0.1-0.2 0.2 0.1-0.2 0-0.1 0-0.3-0.1-0.1-0.2-0.2-0.3-0.4q-0.2-0.5-0.4-1-0.3-1.1-0.5-2.2c-1.2-5.9-1.8-11.5-2.3-16.5 0.1-1 0-2-0.3-3-0.1-0.4-0.4-0.9-0.8-1.3-0.4-0.4-0.9-0.5-1.5-0.5h0.2c-0.9-0.2-1.4 0.3-1.8 0.8-0.3 0.5-0.5 1-0.6 1.6-0.2 1-0.2 2-0.3 3q-0.1 2.9 0 5.4c0.1 3.4 0.8 6.2 1.1 8.6 0.4 2.3 0.6 4.1 0.7 5.3 0.2 0.6-0.3 0.9-0.5 1-0.3 0.2-0.5 0.2-0.5 0.2z"/>
					</g>
				</g>
			</g>
			<path id="&lt;Path&gt;" class="s7" d="m1021.1 416.5c0 0-5.6-0.3-11.6 1.3-10.4 2.7-28.2 13.5-28.9 26.9h12.9c0 0-7.2 15.4-5.1 14 5.5-3.7 16.5-14.9 16.5-14.9z"/>
			<g id="&lt;Group&gt;">
				<g id="&lt;Group&gt;">
					<g id="&lt;Group&gt;">
						<path id="&lt;Path&gt;" class="s5" d="m1197.7 184.1c-0.3 0-1.4-10.7-2.6-23.9-1.2-13.3-1.9-24-1.6-24 0.3-0.1 1.5 10.6 2.6 23.9 1.2 13.2 1.9 24 1.6 24z"/>
					</g>
				</g>
				<g id="&lt;Group&gt;">
					<g id="&lt;Group&gt;">
						<path id="&lt;Path&gt;" class="s5" d="m1254.5 136.8c0.3 0.2-8.5 12.9-19.5 28.4-11 15.5-20.2 27.9-20.4 27.7-0.2-0.1 8.5-12.8 19.5-28.3 11.1-15.5 20.2-27.9 20.4-27.8z"/>
					</g>
				</g>
				<g id="&lt;Group&gt;">
					<g id="&lt;Group&gt;">
						<path id="&lt;Path&gt;" class="s5" d="m1278.1 194.4c0.1 0.3-10.1 2.6-22.8 5.2-12.6 2.6-22.9 4.5-23 4.2 0-0.3 10.2-2.6 22.8-5.2 12.7-2.6 23-4.5 23-4.2z"/>
					</g>
				</g>
			</g>
		</g>
	</g>
	<g id="Folder">
		<g id="&lt;Group&gt;">
			<g id="&lt;Group&gt;">
				<path id="&lt;Path&gt;" class="s4" d="m597.9 469.1l-70.7 363.6-9.3 47.6 472.2-2.3c21.2-0.1 39.9-19 46.7-46.9l83.8-343.3c5.1-21.2-6.2-43.3-22.3-43.3l-477.8 0.5c-10.6 0.1-19.8 9.9-22.6 24.1z"/>
			</g>
			<g id="&lt;Group&gt;" style="opacity: .5">
				<path id="&lt;Path&gt;" class="s9" d="m597.9 469.1l-70.7 363.6-9.3 47.6 472.2-2.3c21.2-0.1 39.9-19 46.7-46.9l83.8-343.3c5.1-21.2-6.2-43.3-22.3-43.3l-477.8 0.5c-10.6 0.1-19.8 9.9-22.6 24.1z"/>
			</g>
			<g id="&lt;Group&gt;">
				<path id="&lt;Path&gt;" class="s4" d="m944.8 808.1l-50-402.9c-2.1-16.5-15.2-28.8-30.7-28.7l-109.6 0.3c-8.2 0.1-15.9 3.5-21.7 9.6l-52 55.4-304.9 1.5c-18.6 0.1-32.9 17.8-30.5 37.6l46.4 372.3c2.1 16.5 15.2 28.8 30.7 28.7l531.3-1c59.2 1.2 64.8-16.3 64.8-16.3-67.8 15.1-73.8-56.5-73.8-56.5z"/>
			</g>
			<g id="&lt;Group&gt;" style="opacity: .5">
				<path id="&lt;Path&gt;" class="s11" d="m715.7 727.4l-17.9 19.3-138-124.2 17.9-19.2z"/>
				<path id="&lt;Path&gt;" class="s11" d="m690.3 599l19.8 17.8-124.9 134.1-19.8-17.8z"/>
			</g>
		</g>
	</g>
	<g id="Speech Bubble">
		<g id="&lt;Group&gt;">
			<g id="&lt;Group&gt;">
				<g id="&lt;Group&gt;">
					<g id="&lt;Group&gt;">
						<path id="&lt;Path&gt;" class="s4" d="m1020.6 207.6c-1.2-0.6-2.2-1.8-2.2-3.3l-0.8-18.6c-0.1-1.1 0.4-2.3 1.3-3 0.9-0.8 2.1-1 3.3-0.8 2.9 0.7 6.2 0.1 9-1.7 2.5-1.7 4.2-4.2 4.7-6.9 0.4-2.6-0.4-5.6-2.3-8-2-2.6-4.9-4.4-7.9-4.8-6-0.7-12.5 4-14.2 10.1-0.5 2-2.5 3.2-4.5 2.6-2.1-0.5-3.2-2.6-2.7-4.5 2.7-9.7 12.7-16.7 22.3-15.6 5 0.6 9.7 3.4 13 7.7 3.1 4.1 4.4 9.1 3.6 13.7-0.7 4.7-3.6 9-7.9 11.9-3 2-6.6 3.1-10.1 3.3l0.6 14.3c0.1 2-1.5 3.8-3.5 3.9q-0.9 0-1.7-0.3z"/>
					</g>
				</g>
				<g id="&lt;Group&gt;">
					<g id="&lt;Group&gt;">
						<path id="&lt;Path&gt;" class="s4" d="m1026.1 215.2c0.1 1.6-1.1 3.1-2.8 3.2-1.7 0.1-3.2-1.1-3.3-2.8-0.1-1.7 1.2-3.2 2.9-3.3 1.6-0.1 3.1 1.2 3.2 2.9z"/>
					</g>
				</g>
			</g>
			<g id="&lt;Group&gt;">
				<g id="&lt;Group&gt;">
					<g id="&lt;Group&gt;">
						<path id="&lt;Path&gt;" class="s5" d="m956.4 181.4q0 0 0.2-1.2 0.1-1.3 0.3-3.6c0.1-1.6 0.5-3.5 1-5.8 0.3-1.1 0.4-2.3 0.8-3.6q0.6-1.9 1.3-4c1.9-5.6 4.9-12.4 9.9-19.1 5-6.7 12-13.3 21-18.3 4.4-2.6 9.5-4.5 14.8-6.1 5.4-1.3 11.2-2.4 17.1-2.2 3-0.2 6 0.3 9.1 0.5 1.5 0.2 3.1 0.6 4.6 0.8 1.5 0.3 3.1 0.6 4.6 1.2 6.2 1.5 12.2 4.5 17.9 8.1 11.5 7.2 21.1 18.9 26.4 33.2 2.7 7.1 3.9 14.9 3.9 22.8 0.2 7.9-1.3 15.9-4.1 23.5l-0.9 2.2-0.2 0.3 0.2 0.3c5 11.6 9.9 22.9 14.7 33.9l0.8-1c-10.3-3.9-20.3-7.8-30-11.5l-0.3-0.1-0.3 0.3c-8.3 8-18.2 13.5-28.3 16.3-10.1 2.8-20.2 3-29.5 1.3-9.2-1.6-17.5-5.1-24.5-9.7-7-4.5-12.6-10.1-16.9-15.7-4.2-5.7-7.1-11.5-9.2-16.7-1.9-5.3-3-10-3.6-14q-0.3-2.9-0.6-5.2 0-2.2-0.1-3.8 0-1.4-0.1-2.3 0-0.8 0-0.8-0.1 0-0.1 0.8 0 0.9 0 2.3 0 1.6 0 3.9 0.2 2.3 0.5 5.2c0.5 4 1.6 8.7 3.4 14.1 2.1 5.3 4.9 11.2 9.2 17 4.3 5.8 9.9 11.4 17 16.1 7 4.6 15.5 8.3 24.8 10 9.4 1.7 19.7 1.6 30-1.3 10.2-2.8 20.4-8.3 28.9-16.5l-0.7 0.1c9.6 3.7 19.6 7.6 29.9 11.6l1.5 0.5-0.6-1.5c-4.8-11-9.7-22.3-14.7-33.9v0.6l0.9-2.3c2.9-7.7 4.5-15.9 4.3-24 0-8.1-1.3-16.1-4-23.3-5.5-14.6-15.4-26.5-27.1-33.9-5.8-3.6-11.9-6.6-18.2-8.2-1.5-0.5-3.1-0.8-4.7-1.1-1.5-0.2-3.1-0.6-4.6-0.8-3.2-0.2-6.2-0.7-9.3-0.5-6-0.1-11.9 1-17.3 2.4-5.4 1.6-10.6 3.5-15 6.2-9.1 5.2-16.2 11.9-21.2 18.7-5 6.9-8 13.7-9.8 19.4q-0.7 2.2-1.2 4.1c-0.4 1.3-0.5 2.5-0.8 3.7-0.4 2.2-0.8 4.2-0.8 5.8q-0.2 2.3-0.3 3.6-0.1 1.2 0 1.2z"/>
					</g>
				</g>
			</g>
		</g>
	</g>
</svg>